<?xml version="1.0" encoding="UTF-8" standalone="no"?>
<svg
   xmlns:dc="http://purl.org/dc/elements/1.1/"
   xmlns:cc="http://creativecommons.org/ns#"
   xmlns:rdf="http://www.w3.org/1999/02/22-rdf-syntax-ns#"
   xmlns:svg="http://www.w3.org/2000/svg"
   xmlns="http://www.w3.org/2000/svg"
   xmlns:sodipodi="http://sodipodi.sourceforge.net/DTD/sodipodi-0.dtd"
   xmlns:inkscape="http://www.inkscape.org/namespaces/inkscape"
   sodipodi:docname="Indian Premier League logo.svg"
   inkscape:version="1.0 (4035a4fb49, 2020-05-01)"
   id="svg2287"
   version="1.1"
   viewBox="0 0 38.759997 19.694999"
   height="19.695mm"
   width="38.759998mm">
  <defs
     id="defs2281">
    <clipPath
       id="clipPath44"
       clipPathUnits="userSpaceOnUse">
      <path
         id="path42"
         d="M 0,0 H 1162.205 V 850.394 H 0 Z" />
    </clipPath>
  </defs>
  <sodipodi:namedview
     inkscape:window-maximized="0"
     inkscape:window-y="0"
     inkscape:window-x="152"
     inkscape:window-height="1030"
     inkscape:window-width="1375"
     showgrid="false"
     inkscape:document-rotation="0"
     inkscape:current-layer="layer1"
     inkscape:document-units="mm"
     inkscape:cy="74.69323"
     inkscape:cx="149.71066"
     inkscape:zoom="256"
     inkscape:pageshadow="2"
     inkscape:pageopacity="0.0"
     borderopacity="1.0"
     bordercolor="#666666"
     pagecolor="#ffffff"
     id="base" />
  <metadata
     id="metadata2284">
    <rdf:RDF>
      <cc:Work
         rdf:about="">
        <dc:format>image/svg+xml</dc:format>
        <dc:type
           rdf:resource="http://purl.org/dc/dcmitype/StillImage" />
        <dc:title></dc:title>
      </cc:Work>
    </rdf:RDF>
  </metadata>
  <g
     id="layer1"
     inkscape:groupmode="layer"
     inkscape:label="Layer 1">
    <g
       id="g38"
       transform="matrix(0.35277777,0,0,-0.35277777,-14.995282,156.33288)">
      <g
         id="g40"
         clip-path="url(#clipPath44)">
        <g
           id="g46"
           transform="translate(84.683,433.359)">
          <path
             d="m 0,0 c -0.11,-0.955 -0.184,-1.905 -0.223,-2.849 -0.038,-0.944 -0.057,-1.9 -0.057,-2.865 0,-0.956 0.016,-1.906 0.049,-2.85 0.033,-0.944 0.11,-1.893 0.231,-2.849 h -3.59 c 0.132,0.944 0.211,1.891 0.238,2.841 0.028,0.95 0.042,1.902 0.042,2.858 0,0.965 -0.017,1.921 -0.05,2.865 -0.033,0.944 -0.109,1.894 -0.23,2.849 z"
             style="fill:#19398a;fill-opacity:1;fill-rule:nonzero;stroke:none"
             id="path48" />
        </g>
        <g
           id="g50"
           transform="translate(89.0635,433.359)">
          <path
             d="M 0,0 C 0.977,-1.153 1.979,-2.273 3.005,-3.359 4.032,-4.446 5.083,-5.523 6.159,-6.588 6.137,-5.479 6.096,-4.378 6.036,-3.285 5.975,-2.193 5.874,-1.098 5.731,0 H 7.922 C 7.833,-0.834 7.759,-1.682 7.699,-2.544 7.639,-3.406 7.608,-4.271 7.608,-5.138 c 0,-1.054 0.009,-2.1 0.025,-3.138 0.017,-1.037 0.036,-2.083 0.058,-3.137 H 6.044 c -1.098,1.23 -2.198,2.438 -3.302,3.623 -1.103,1.186 -2.237,2.356 -3.4,3.508 -0.034,-0.428 -0.05,-0.856 -0.05,-1.284 0,-0.988 0.025,-1.969 0.075,-2.94 0.049,-0.972 0.15,-1.941 0.304,-2.907 H -2.47 c 0.12,1.021 0.2,2.034 0.239,3.038 0.038,1.006 0.057,2.023 0.057,3.056 0,0.9 -0.016,1.787 -0.049,2.659 C -2.256,-1.787 -2.3,-0.901 -2.355,0 Z"
             style="fill:#19398a;fill-opacity:1;fill-rule:nonzero;stroke:none"
             id="path52" />
        </g>
        <g
           id="g54"
           transform="translate(103.671,433.359)">
          <path
             d="m 0,0 c 0.516,0 1.029,-0.014 1.539,-0.041 0.511,-0.028 1.013,-0.113 1.507,-0.256 1.153,-0.329 2.009,-0.891 2.57,-1.687 0.559,-0.797 0.839,-1.787 0.839,-2.973 0,-1.098 -0.195,-2.059 -0.584,-2.882 -0.391,-0.823 -0.92,-1.51 -1.589,-2.059 -0.67,-0.549 -1.458,-0.963 -2.364,-1.243 -0.905,-0.28 -1.869,-0.42 -2.89,-0.42 -0.582,0 -1.208,0.016 -1.877,0.049 -0.67,0.033 -1.284,0.138 -1.845,0.313 0.099,0.801 0.157,1.603 0.173,2.405 0.017,0.801 0.025,1.608 0.025,2.421 0,1.065 -0.014,2.127 -0.041,3.186 -0.027,1.06 -0.107,2.122 -0.239,3.187 z m -1.449,-5.797 c 0,-0.527 0.002,-1.076 0.008,-1.647 0.005,-0.571 0.024,-1.12 0.057,-1.647 0.011,-0.208 0.034,-0.384 0.066,-0.527 0.033,-0.142 0.088,-0.255 0.165,-0.337 0.077,-0.083 0.184,-0.14 0.321,-0.173 0.137,-0.033 0.315,-0.05 0.535,-0.05 0.615,0 1.137,0.135 1.565,0.404 0.428,0.269 0.776,0.618 1.045,1.045 0.27,0.429 0.47,0.909 0.601,1.442 0.132,0.532 0.204,1.062 0.215,1.589 0.022,0.549 -0.025,1.084 -0.14,1.606 -0.116,0.521 -0.31,0.985 -0.585,1.391 -0.275,0.406 -0.634,0.733 -1.079,0.98 -0.445,0.247 -0.979,0.37 -1.605,0.37 h -1.169 z"
             style="fill:#19398a;fill-opacity:1;fill-rule:nonzero;stroke:none"
             id="path56" />
        </g>
        <g
           id="g58"
           transform="translate(114.8694,433.359)">
          <path
             d="m 0,0 c -0.11,-0.955 -0.184,-1.905 -0.222,-2.849 -0.039,-0.944 -0.058,-1.9 -0.058,-2.865 0,-0.956 0.016,-1.906 0.049,-2.85 0.033,-0.944 0.11,-1.893 0.231,-2.849 h -3.59 c 0.131,0.944 0.211,1.891 0.239,2.841 0.026,0.95 0.041,1.902 0.041,2.858 0,0.965 -0.017,1.921 -0.05,2.865 -0.032,0.944 -0.109,1.894 -0.23,2.849 z"
             style="fill:#19398a;fill-opacity:1;fill-rule:nonzero;stroke:none"
             id="path60" />
        </g>
        <g
           id="g62"
           transform="translate(122.8398,433.359)">
          <path
             d="m 0,0 c 0.45,-1.241 0.919,-2.47 1.408,-3.689 0.488,-1.219 0.996,-2.432 1.524,-3.639 0.307,-0.692 0.626,-1.375 0.954,-2.051 0.33,-0.675 0.66,-1.353 0.988,-2.034 h -3.82 c -0.209,0.56 -0.428,1.106 -0.659,1.639 -0.23,0.532 -0.455,1.073 -0.675,1.622 h -3.573 c -0.198,-0.538 -0.399,-1.076 -0.602,-1.614 -0.203,-0.538 -0.382,-1.087 -0.535,-1.647 h -2.273 c 0.989,1.998 1.927,4.008 2.817,6.028 0.384,0.889 0.762,1.778 1.136,2.668 0.373,0.889 0.719,1.795 1.037,2.717 z m -3.426,-6.735 h 2.652 l -1.383,3.458 z"
             style="fill:#19398a;fill-opacity:1;fill-rule:nonzero;stroke:none"
             id="path64" />
        </g>
        <g
           id="g66"
           transform="translate(130.827,433.359)">
          <path
             d="M 0,0 C 0.976,-1.153 1.979,-2.273 3.005,-3.359 4.032,-4.446 5.083,-5.523 6.159,-6.588 6.136,-5.479 6.095,-4.378 6.036,-3.285 5.974,-2.193 5.873,-1.098 5.731,0 h 2.19 C 7.833,-0.834 7.759,-1.682 7.698,-2.544 c -0.06,-0.862 -0.09,-1.727 -0.09,-2.594 0,-1.054 0.008,-2.1 0.025,-3.138 0.017,-1.037 0.035,-2.083 0.058,-3.137 H 6.043 c -1.097,1.23 -2.198,2.438 -3.301,3.623 -1.104,1.186 -2.237,2.356 -3.401,3.508 -0.033,-0.428 -0.049,-0.856 -0.049,-1.284 0,-0.988 0.025,-1.969 0.074,-2.94 0.049,-0.972 0.15,-1.941 0.305,-2.907 h -2.142 c 0.121,1.021 0.201,2.034 0.239,3.038 0.039,1.006 0.057,2.023 0.057,3.056 0,0.9 -0.016,1.787 -0.048,2.659 -0.034,0.873 -0.078,1.759 -0.132,2.66 z"
             style="fill:#19398a;fill-opacity:1;fill-rule:nonzero;stroke:none"
             id="path68" />
        </g>
        <g
           id="g70"
           transform="translate(81.093,407.5006)">
          <path
             d="M 0,0 C 0.121,0.955 0.197,1.905 0.23,2.849 0.263,3.793 0.28,4.743 0.28,5.698 0.28,6.664 0.263,7.619 0.23,8.563 0.197,9.507 0.121,10.457 0,11.412 h 4.809 c 0.493,0 0.963,-0.041 1.408,-0.123 C 6.661,11.207 7.051,11.058 7.386,10.844 7.72,10.63 7.984,10.339 8.177,9.971 8.368,9.603 8.464,9.134 8.464,8.563 8.464,7.992 8.365,7.487 8.168,7.048 7.97,6.609 7.698,6.244 7.353,5.953 7.007,5.662 6.601,5.443 6.135,5.295 5.667,5.146 5.16,5.072 4.611,5.072 4.479,5.072 4.347,5.077 4.216,5.089 4.084,5.099 3.952,5.116 3.821,5.138 L 3.459,5.846 C 3.821,5.868 4.117,5.953 4.347,6.101 4.578,6.25 4.756,6.439 4.883,6.669 5.009,6.9 5.094,7.163 5.138,7.46 c 0.044,0.296 0.066,0.598 0.066,0.906 0,0.647 -0.124,1.095 -0.371,1.342 -0.246,0.247 -0.678,0.37 -1.293,0.37 -0.109,0 -0.187,-0.005 -0.23,-0.016 V 4.429 C 3.31,3.683 3.332,2.942 3.376,2.207 3.419,1.471 3.491,0.735 3.59,0 Z"
             style="fill:#19398a;fill-opacity:1;fill-rule:nonzero;stroke:none"
             id="path72" />
        </g>
        <g
           id="g74"
           transform="translate(97.9315,412.1281)">
          <path
             d="m 0,0 c 0.159,-0.187 0.315,-0.39 0.469,-0.61 0.154,-0.219 0.297,-0.433 0.429,-0.642 0.131,-0.208 0.236,-0.373 0.313,-0.494 0.318,-0.483 0.634,-0.963 0.946,-1.441 0.314,-0.477 0.629,-0.958 0.947,-1.44 h -4.001 c -0.44,0.856 -0.895,1.684 -1.368,2.486 -0.121,0.209 -0.244,0.42 -0.37,0.634 -0.126,0.214 -0.266,0.414 -0.42,0.601 -0.065,0.088 -0.126,0.156 -0.181,0.206 -0.055,0.049 -0.138,0.08 -0.247,0.09 0.022,-0.68 0.046,-1.353 0.074,-2.017 0.027,-0.664 0.085,-1.331 0.173,-2 h -3.591 c 0.122,0.955 0.198,1.904 0.231,2.848 0.033,0.945 0.05,1.894 0.05,2.85 0,0.965 -0.017,1.921 -0.05,2.865 -0.033,0.944 -0.109,1.894 -0.231,2.849 h 5.155 c 0.461,0 0.912,-0.049 1.35,-0.148 C 0.118,6.538 0.511,6.373 0.857,6.143 1.202,5.912 1.48,5.61 1.688,5.237 1.897,4.863 2.001,4.402 2.001,3.854 2.001,2.931 1.768,2.198 1.301,1.655 0.834,1.111 0.156,0.724 -0.733,0.494 -0.678,0.472 -0.626,0.453 -0.576,0.436 -0.527,0.42 -0.481,0.401 -0.436,0.379 -0.305,0.313 -0.159,0.187 0,0 m -3.483,0.873 c 0.033,0 0.09,-0.003 0.173,-0.009 0.082,-0.005 0.14,-0.008 0.173,-0.008 0.329,0 0.609,0.077 0.839,0.231 0.231,0.153 0.415,0.351 0.553,0.592 0.136,0.242 0.235,0.514 0.296,0.816 0.06,0.302 0.091,0.595 0.091,0.881 0,0.549 -0.132,1.002 -0.396,1.358 C -2.017,5.091 -2.44,5.27 -3.022,5.27 h -0.461 z"
             style="fill:#19398a;fill-opacity:1;fill-rule:nonzero;stroke:none"
             id="path76" />
        </g>
        <g
           id="g78"
           transform="translate(109.5336,407.5006)">
          <path
             d="M 0,0 C -0.813,0.055 -1.625,0.088 -2.438,0.098 -3.25,0.11 -4.057,0.115 -4.858,0.115 H -5.616 C -5.858,0.115 -6.104,0.104 -6.357,0.082 -6.555,0.06 -6.752,0.043 -6.95,0.033 -7.148,0.022 -7.345,0.01 -7.543,0 c 0.121,0.955 0.198,1.905 0.231,2.849 0.033,0.944 0.05,1.894 0.05,2.849 0,0.966 -0.017,1.921 -0.05,2.865 -0.033,0.944 -0.11,1.894 -0.231,2.849 0.341,0 0.675,-0.008 1.005,-0.025 0.33,-0.016 0.664,-0.024 1.004,-0.024 0.813,0 1.617,0.002 2.413,0.008 0.796,0.006 1.6,0.019 2.413,0.041 V 9.634 c -0.538,0.153 -1.074,0.26 -1.606,0.321 -0.533,0.06 -1.079,0.091 -1.639,0.091 -0.043,0 -0.088,-0.003 -0.131,-0.009 -0.044,-0.005 -0.088,-0.008 -0.132,-0.008 V 6.505 c 0.055,-0.012 0.098,-0.017 0.132,-0.017 h 0.148 c 0.461,0 0.953,0.022 1.474,0.066 0.521,0.044 1.013,0.093 1.474,0.149 V 5.022 C -1.449,5.077 -1.911,5.124 -2.372,5.163 -2.833,5.201 -3.3,5.22 -3.771,5.22 -3.848,5.22 -3.923,5.217 -3.994,5.212 -4.066,5.206 -4.139,5.204 -4.216,5.204 V 3.639 c 0,-0.351 0.006,-0.697 0.016,-1.038 0.011,-0.34 0.044,-0.68 0.099,-1.02 0.307,-0.077 0.626,-0.115 0.956,-0.115 0.56,0 1.111,0.038 1.654,0.115 0.544,0.076 1.085,0.153 1.623,0.231 z"
             style="fill:#19398a;fill-opacity:1;fill-rule:nonzero;stroke:none"
             id="path80" />
        </g>
        <g
           id="g82"
           transform="translate(114.4076,418.9128)">
          <path
             d="m 0,0 c 0.56,-1.306 1.12,-2.608 1.68,-3.903 0.56,-1.296 1.175,-2.569 1.845,-3.82 0.626,1.262 1.218,2.533 1.778,3.812 0.56,1.279 1.071,2.583 1.532,3.911 H 9.47 c 0.088,-1.922 0.235,-3.828 0.444,-5.723 0.208,-1.894 0.483,-3.79 0.824,-5.689 H 7.181 c 0,1.163 -0.039,2.316 -0.116,3.458 C 6.989,-6.812 6.884,-5.66 6.752,-4.495 6.193,-5.627 5.66,-6.768 5.155,-7.921 4.65,-9.074 4.178,-10.238 3.738,-11.412 H 1.597 c -0.504,1.163 -1.01,2.316 -1.514,3.458 -0.505,1.142 -1.037,2.283 -1.598,3.425 -0.088,-0.955 -0.156,-1.899 -0.205,-2.832 -0.05,-0.933 -0.075,-1.878 -0.075,-2.833 v -0.626 c 0,-0.197 0.006,-0.395 0.016,-0.592 h -2.14 c 0.197,0.856 0.356,1.715 0.477,2.577 0.121,0.862 0.225,1.726 0.313,2.594 0.11,1.042 0.209,2.08 0.296,3.112 0.088,1.032 0.132,2.075 0.132,3.129 z"
             style="fill:#19398a;fill-opacity:1;fill-rule:nonzero;stroke:none"
             id="path84" />
        </g>
        <g
           id="g86"
           transform="translate(130.1517,418.9128)">
          <path
             d="m 0,0 c -0.11,-0.955 -0.184,-1.905 -0.222,-2.849 -0.039,-0.944 -0.058,-1.9 -0.058,-2.865 0,-0.956 0.016,-1.905 0.049,-2.849 0.033,-0.945 0.11,-1.894 0.231,-2.849 h -3.59 c 0.131,0.944 0.211,1.891 0.238,2.84 0.027,0.95 0.042,1.902 0.042,2.858 0,0.965 -0.017,1.921 -0.05,2.865 -0.033,0.944 -0.11,1.894 -0.23,2.849 z"
             style="fill:#19398a;fill-opacity:1;fill-rule:nonzero;stroke:none"
             id="path88" />
        </g>
        <g
           id="g90"
           transform="translate(139.6375,407.5006)">
          <path
             d="M 0,0 C -0.813,0.055 -1.625,0.088 -2.438,0.098 -3.251,0.11 -4.057,0.115 -4.859,0.115 H -5.616 C -5.857,0.115 -6.105,0.104 -6.357,0.082 -6.555,0.06 -6.752,0.043 -6.95,0.033 -7.148,0.022 -7.345,0.01 -7.543,0 c 0.12,0.955 0.198,1.905 0.231,2.849 0.033,0.944 0.049,1.894 0.049,2.849 0,0.966 -0.016,1.921 -0.049,2.865 -0.033,0.944 -0.111,1.894 -0.231,2.849 0.34,0 0.675,-0.008 1.005,-0.025 0.329,-0.016 0.664,-0.024 1.005,-0.024 0.811,0 1.616,0.002 2.412,0.008 0.796,0.006 1.6,0.019 2.413,0.041 V 9.634 c -0.539,0.153 -1.073,0.26 -1.606,0.321 -0.533,0.06 -1.078,0.091 -1.638,0.091 -0.045,0 -0.088,-0.003 -0.132,-0.009 -0.044,-0.005 -0.088,-0.008 -0.132,-0.008 V 6.505 c 0.055,-0.012 0.099,-0.017 0.132,-0.017 h 0.148 c 0.461,0 0.952,0.022 1.474,0.066 0.521,0.044 1.013,0.093 1.474,0.149 V 5.022 C -1.449,5.077 -1.911,5.124 -2.372,5.163 -2.833,5.201 -3.3,5.22 -3.771,5.22 -3.849,5.22 -3.922,5.217 -3.994,5.212 -4.065,5.206 -4.14,5.204 -4.216,5.204 V 3.639 c 0,-0.351 0.005,-0.697 0.017,-1.038 0.01,-0.34 0.043,-0.68 0.098,-1.02 0.307,-0.077 0.626,-0.115 0.956,-0.115 0.559,0 1.111,0.038 1.654,0.115 0.544,0.076 1.084,0.153 1.623,0.231 z"
             style="fill:#19398a;fill-opacity:1;fill-rule:nonzero;stroke:none"
             id="path92" />
        </g>
        <g
           id="g94"
           transform="translate(147.7808,412.1281)">
          <path
             d="M 0,0 C 0.159,-0.187 0.315,-0.39 0.469,-0.61 0.623,-0.829 0.766,-1.043 0.898,-1.252 1.029,-1.46 1.134,-1.625 1.21,-1.746 1.528,-2.229 1.844,-2.709 2.157,-3.187 2.47,-3.664 2.785,-4.145 3.104,-4.627 h -4.002 c -0.439,0.856 -0.895,1.684 -1.367,2.486 -0.121,0.209 -0.244,0.42 -0.37,0.634 -0.126,0.214 -0.266,0.414 -0.42,0.601 -0.066,0.088 -0.126,0.156 -0.181,0.206 -0.055,0.049 -0.138,0.08 -0.247,0.09 0.022,-0.68 0.046,-1.353 0.074,-2.017 0.027,-0.664 0.085,-1.331 0.173,-2 h -3.591 c 0.122,0.955 0.199,1.904 0.232,2.848 0.032,0.945 0.049,1.894 0.049,2.85 0,0.965 -0.017,1.921 -0.049,2.865 -0.033,0.944 -0.11,1.894 -0.232,2.849 h 5.155 c 0.461,0 0.912,-0.049 1.351,-0.148 C 0.118,6.538 0.51,6.373 0.856,6.143 1.202,5.912 1.479,5.61 1.688,5.237 1.896,4.863 2.001,4.402 2.001,3.854 2.001,2.931 1.767,2.198 1.301,1.655 0.834,1.111 0.156,0.724 -0.732,0.494 -0.678,0.472 -0.626,0.453 -0.576,0.436 -0.527,0.42 -0.481,0.401 -0.436,0.379 -0.305,0.313 -0.16,0.187 0,0 m -3.483,0.873 c 0.032,0 0.09,-0.003 0.173,-0.009 0.082,-0.005 0.14,-0.008 0.173,-0.008 0.329,0 0.609,0.077 0.84,0.231 0.23,0.153 0.414,0.351 0.552,0.592 0.136,0.242 0.235,0.514 0.296,0.816 0.06,0.302 0.09,0.595 0.09,0.881 0,0.549 -0.131,1.002 -0.395,1.358 C -2.017,5.091 -2.44,5.27 -3.022,5.27 h -0.461 z"
             style="fill:#19398a;fill-opacity:1;fill-rule:nonzero;stroke:none"
             id="path96" />
        </g>
        <g
           id="g98"
           transform="translate(88.6353,393.0544)">
          <path
             d="M 0,0 C -0.813,0.055 -1.625,0.088 -2.438,0.099 -3.25,0.11 -4.057,0.115 -4.858,0.115 H -5.616 C -5.868,0.115 -6.121,0.104 -6.373,0.082 -6.571,0.06 -6.766,0.044 -6.958,0.033 -7.15,0.022 -7.345,0.011 -7.542,0 c 0.12,0.955 0.197,1.905 0.23,2.849 0.033,0.944 0.05,1.894 0.05,2.849 0,0.966 -0.017,1.921 -0.05,2.866 -0.033,0.944 -0.11,1.893 -0.23,2.849 h 3.59 c -0.11,-0.956 -0.184,-1.905 -0.223,-2.849 -0.038,-0.945 -0.057,-1.9 -0.057,-2.866 0,-0.319 0.002,-0.637 0.008,-0.955 0.005,-0.319 0.008,-0.637 0.008,-0.956 0,-0.362 0.006,-0.73 0.017,-1.103 0.01,-0.373 0.043,-0.741 0.098,-1.103 0.165,-0.055 0.324,-0.088 0.478,-0.099 0.154,-0.011 0.313,-0.016 0.478,-0.016 0.559,0 1.111,0.038 1.655,0.115 0.543,0.076 1.084,0.154 1.622,0.23 z"
             style="fill:#19398a;fill-opacity:1;fill-rule:nonzero;stroke:none"
             id="path100" />
        </g>
        <g
           id="g102"
           transform="translate(97.4788,393.0544)">
          <path
             d="M 0,0 C -0.813,0.055 -1.625,0.088 -2.437,0.099 -3.25,0.11 -4.057,0.115 -4.859,0.115 H -5.616 C -5.857,0.115 -6.105,0.104 -6.357,0.082 -6.555,0.06 -6.753,0.044 -6.95,0.033 -7.147,0.022 -7.345,0.011 -7.543,0 c 0.121,0.955 0.198,1.905 0.231,2.849 0.033,0.944 0.05,1.894 0.05,2.849 0,0.966 -0.017,1.921 -0.05,2.866 -0.033,0.944 -0.11,1.893 -0.231,2.849 0.341,0 0.676,-0.009 1.005,-0.025 0.33,-0.017 0.664,-0.025 1.005,-0.025 0.812,0 1.616,0.003 2.412,0.008 0.796,0.005 1.6,0.019 2.413,0.042 V 9.634 c -0.539,0.153 -1.073,0.26 -1.606,0.321 -0.532,0.06 -1.078,0.091 -1.638,0.091 -0.044,0 -0.088,-0.003 -0.132,-0.009 -0.045,-0.005 -0.088,-0.008 -0.132,-0.008 V 6.505 c 0.055,-0.011 0.099,-0.016 0.132,-0.016 h 0.148 c 0.461,0 0.952,0.021 1.474,0.065 0.521,0.044 1.013,0.093 1.474,0.149 V 5.023 C -1.449,5.078 -1.91,5.124 -2.372,5.162 -2.833,5.201 -3.3,5.22 -3.771,5.22 -3.848,5.22 -3.922,5.217 -3.994,5.212 -4.065,5.207 -4.14,5.204 -4.216,5.204 V 3.64 c 0,-0.352 0.005,-0.698 0.016,-1.038 0.011,-0.34 0.044,-0.681 0.099,-1.021 0.307,-0.077 0.626,-0.115 0.956,-0.115 0.56,0 1.111,0.038 1.655,0.115 0.543,0.076 1.084,0.154 1.621,0.23 z"
             style="fill:#19398a;fill-opacity:1;fill-rule:nonzero;stroke:none"
             id="path104" />
        </g>
        <g
           id="g106"
           transform="translate(105.3007,404.4672)">
          <path
             d="m 0,0 c 0.45,-1.241 0.92,-2.471 1.409,-3.689 0.487,-1.219 0.996,-2.432 1.523,-3.64 0.307,-0.691 0.626,-1.374 0.955,-2.05 0.329,-0.675 0.659,-1.353 0.988,-2.034 H 1.054 c -0.208,0.56 -0.428,1.106 -0.658,1.639 -0.231,0.532 -0.456,1.072 -0.676,1.622 h -3.573 c -0.197,-0.538 -0.399,-1.076 -0.601,-1.614 -0.204,-0.538 -0.382,-1.087 -0.536,-1.647 h -2.272 c 0.988,1.998 1.926,4.007 2.816,6.028 0.384,0.889 0.763,1.778 1.136,2.668 0.373,0.889 0.719,1.794 1.037,2.717 z m -3.425,-6.736 h 2.651 l -1.383,3.459 z"
             style="fill:#19398a;fill-opacity:1;fill-rule:nonzero;stroke:none"
             id="path108" />
        </g>
        <g
           id="g110"
           transform="translate(120.682,398.3242)">
          <path
             d="m 0,0 c -0.076,-0.571 -0.137,-1.139 -0.181,-1.705 -0.044,-0.565 -0.066,-1.134 -0.066,-1.704 0,-0.253 0.008,-0.496 0.025,-0.73 0.016,-0.235 0.052,-0.477 0.107,-0.727 -0.296,-0.109 -0.637,-0.203 -1.021,-0.285 -0.385,-0.081 -0.782,-0.146 -1.194,-0.195 -0.412,-0.049 -0.818,-0.083 -1.219,-0.106 -0.4,-0.021 -0.76,-0.032 -1.078,-0.032 -0.835,0 -1.625,0.123 -2.372,0.37 -0.746,0.247 -1.4,0.61 -1.96,1.088 -0.559,0.477 -1.002,1.059 -1.325,1.745 -0.324,0.686 -0.486,1.474 -0.486,2.364 0,1.02 0.192,1.92 0.576,2.7 0.384,0.779 0.9,1.43 1.548,1.952 0.648,0.521 1.4,0.916 2.257,1.185 0.856,0.269 1.762,0.404 2.716,0.404 0.55,0 1.107,-0.033 1.672,-0.099 0.566,-0.066 1.09,-0.252 1.573,-0.56 L -0.972,3.442 H -1.284 C -1.603,3.958 -1.984,4.345 -2.429,4.603 -2.873,4.861 -3.398,4.99 -4.002,4.99 -4.639,4.99 -5.177,4.855 -5.616,4.585 -6.055,4.316 -6.408,3.964 -6.678,3.53 -6.947,3.095 -7.138,2.606 -7.254,2.061 -7.37,1.517 -7.427,0.97 -7.427,0.42 c 0,-0.506 0.052,-1.029 0.156,-1.567 0.105,-0.54 0.282,-1.032 0.536,-1.477 0.252,-0.446 0.585,-0.811 0.996,-1.097 0.411,-0.286 0.919,-0.429 1.523,-0.429 0.165,0 0.327,0.006 0.486,0.017 0.159,0.01 0.315,0.032 0.469,0.065 0.011,0.132 0.017,0.264 0.017,0.396 v 0.411 c 0,0.549 -0.019,1.093 -0.058,1.631 -0.038,0.538 -0.096,1.081 -0.173,1.63 z"
             style="fill:#19398a;fill-opacity:1;fill-rule:nonzero;stroke:none"
             id="path112" />
        </g>
        <g
           id="g114"
           transform="translate(126.001,404.4672)">
          <path
             d="m 0,0 c -0.154,-1.131 -0.242,-2.267 -0.263,-3.409 -0.022,-1.142 -0.033,-2.284 -0.033,-3.426 0,-0.439 0.022,-0.859 0.066,-1.259 0.043,-0.402 0.148,-0.755 0.313,-1.063 0.164,-0.307 0.403,-0.554 0.716,-0.741 0.313,-0.186 0.738,-0.28 1.276,-0.28 0.681,0 1.197,0.141 1.549,0.42 0.35,0.28 0.606,0.637 0.765,1.071 0.159,0.433 0.247,0.916 0.263,1.449 0.017,0.532 0.025,1.045 0.025,1.54 0,0.966 -0.033,1.921 -0.099,2.865 C 4.513,-1.889 4.425,-0.945 4.315,0 H 6.489 C 6.39,-0.923 6.308,-1.845 6.242,-2.767 6.198,-3.459 6.168,-4.144 6.151,-4.825 6.135,-5.506 6.127,-6.193 6.127,-6.884 c 0,-1.625 -0.371,-2.816 -1.112,-3.573 -0.741,-0.758 -1.93,-1.137 -3.566,-1.137 -0.68,0 -1.312,0.057 -1.893,0.173 -0.582,0.115 -1.087,0.321 -1.516,0.618 -0.428,0.296 -0.763,0.694 -1.004,1.194 -0.242,0.499 -0.363,1.133 -0.363,1.902 0,0.384 0.006,0.76 0.017,1.128 0.01,0.367 0.016,0.743 0.016,1.128 0,0.911 -0.021,1.819 -0.065,2.725 C -3.403,-1.82 -3.481,-0.912 -3.59,0 Z"
             style="fill:#19398a;fill-opacity:1;fill-rule:nonzero;stroke:none"
             id="path116" />
        </g>
        <g
           id="g118"
           transform="translate(141.9259,393.0544)">
          <path
             d="M 0,0 C -0.813,0.055 -1.624,0.088 -2.437,0.099 -3.25,0.11 -4.057,0.115 -4.858,0.115 H -5.616 C -5.857,0.115 -6.104,0.104 -6.357,0.082 -6.554,0.06 -6.752,0.044 -6.949,0.033 -7.147,0.022 -7.345,0.011 -7.542,0 c 0.12,0.955 0.197,1.905 0.23,2.849 0.033,0.944 0.05,1.894 0.05,2.849 0,0.966 -0.017,1.921 -0.05,2.866 -0.033,0.944 -0.11,1.893 -0.23,2.849 0.34,0 0.675,-0.009 1.004,-0.025 0.33,-0.017 0.664,-0.025 1.005,-0.025 0.812,0 1.616,0.003 2.413,0.008 0.795,0.005 1.599,0.019 2.412,0.042 V 9.634 c -0.538,0.153 -1.073,0.26 -1.605,0.321 -0.533,0.06 -1.079,0.091 -1.639,0.091 -0.044,0 -0.088,-0.003 -0.131,-0.009 -0.045,-0.005 -0.088,-0.008 -0.133,-0.008 V 6.505 c 0.055,-0.011 0.099,-0.016 0.133,-0.016 h 0.147 c 0.461,0 0.953,0.021 1.474,0.065 0.521,0.044 1.013,0.093 1.474,0.149 V 5.023 C -1.449,5.078 -1.91,5.124 -2.371,5.162 -2.832,5.201 -3.299,5.22 -3.771,5.22 -3.848,5.22 -3.922,5.217 -3.993,5.212 -4.065,5.207 -4.139,5.204 -4.216,5.204 V 3.64 c 0,-0.352 0.006,-0.698 0.017,-1.038 0.01,-0.34 0.043,-0.681 0.099,-1.021 0.307,-0.077 0.625,-0.115 0.955,-0.115 0.56,0 1.111,0.038 1.655,0.115 0.543,0.076 1.084,0.154 1.623,0.23 z"
             style="fill:#19398a;fill-opacity:1;fill-rule:nonzero;stroke:none"
             id="path120" />
        </g>
        <g
           id="g122"
           transform="translate(77.7747,404.1606)">
          <path
             d="M 0,0 C -0.012,0.145 -0.093,0.354 -0.15,0.443 -0.29,0.646 -0.489,0.81 -0.729,0.872 -1.299,1.024 -1.874,0.65 -2.308,0.287 -2.394,0.494 -2.479,0.704 -2.536,0.927 l -0.421,0.895 c -0.159,0.386 -0.471,0.619 -0.554,1.082 -0.85,1.25 -1.25,2.949 -2.533,3.77 -0.262,0.325 -0.536,0.64 -0.866,0.897 -0.347,0.592 -1.037,0.813 -1.241,1.503 -0.047,0.155 0,0.367 -0.079,0.526 -0.052,0.105 -0.196,0.14 -0.345,0.266 -0.116,0.097 -0.218,0.244 -0.312,0.315 -0.194,0.14 -0.426,0.253 -0.613,0.383 -2.069,-2.262 -4.395,-4.101 -6.806,-5.464 0.05,-0.068 0.097,-0.131 0.139,-0.191 0.222,-0.33 0.523,-0.615 0.571,-1.029 0.021,-0.181 0.109,-0.342 0.132,-0.518 0.015,-0.145 0.074,-0.261 0.133,-0.39 0.067,-0.157 0.051,-0.321 0.064,-0.486 0.01,-0.136 0.072,-0.249 0.103,-0.378 0.014,-0.06 -0.017,-0.123 0,-0.181 0.011,-0.039 0.058,-0.052 0.073,-0.088 0.04,-0.094 0.02,-0.243 0.046,-0.346 0.038,-0.186 0.099,-0.376 0.085,-0.571 -0.027,-0.4 0.06,-0.815 0.091,-1.212 0.054,-0.6 0.072,-1.201 0.054,-1.803 -0.013,-0.311 -0.033,-0.621 -0.064,-0.928 -0.016,-0.158 -0.036,-0.314 -0.055,-0.47 -0.014,-0.097 -0.009,-0.391 -0.072,-0.461 -0.333,-0.366 -0.454,-0.852 -0.765,-1.212 -0.232,-0.269 -0.585,-0.482 -0.87,-0.711 -0.169,-0.14 -0.339,-0.281 -0.511,-0.42 -0.131,-0.108 -0.302,-0.195 -0.397,-0.34 -0.07,-0.106 -0.112,-0.238 -0.168,-0.356 -0.13,-0.278 -0.276,-0.551 -0.416,-0.827 -0.099,-0.191 -0.168,-0.394 -0.262,-0.586 -0.087,-0.17 -0.201,-0.31 -0.305,-0.465 -0.126,-0.186 -0.162,-0.408 -0.329,-0.574 -0.123,-0.124 -0.252,-0.273 -0.332,-0.384 -0.245,-0.315 -0.352,-0.438 -0.576,-0.768 -0.222,-0.333 -0.425,-0.726 -0.686,-1.003 -0.229,-0.245 -0.554,-0.442 -0.815,-0.658 -0.277,-0.225 -0.533,-0.38 -0.814,-0.669 -0.177,-0.356 -0.137,-0.773 -0.216,-1.153 -0.034,-0.158 -0.131,-0.277 -0.131,-0.447 0,-0.189 0.093,-0.4 0.131,-0.604 0.075,-0.382 -0.017,-0.92 0.305,-1.202 0.378,-0.329 0.997,-0.493 1.473,-0.493 0.796,0.075 1.394,0.133 2.206,0.192 0.209,0.095 0.159,0.51 0.151,0.578 -0.009,0.124 -0.078,0.195 0.005,0.318 1.072,1.32 1.942,2.837 3.269,3.9 0.184,-0.264 0.413,-0.505 0.632,-0.789 0.196,-0.249 0.389,-0.631 0.634,-0.791 0.286,-0.192 0.6,-0.346 1,-0.369 0.44,0.234 0.226,2.076 0.661,2.794 0.321,0.063 0.564,0.211 0.871,0.289 1.964,1.976 4.167,3.99 6.273,5.907 0.305,0.277 0.62,0.629 0.924,0.816 0.557,0.344 1.223,0.462 1.792,0.765 C -1.344,-2.123 0.17,-0.378 0,0 m -19.018,-15.901 c -0.196,-0.206 -0.522,-0.197 -1.271,-0.164 -0.747,0.035 -0.698,0.061 -1.125,0.246 -0.358,0.152 -0.475,0.097 -0.394,1.038 0.087,0.995 0.865,0.811 1.708,0.544 0.857,-0.267 0.863,-0.356 0.902,-0.535 0.043,-0.182 0.213,-0.714 0.213,-0.714 0,0 0.095,-0.279 -0.033,-0.415 m 6.164,3.331 c -0.026,-0.249 0.026,-0.41 -0.259,-0.367 -0.451,0.072 -0.463,0.424 -0.647,0.696 -0.213,0.31 -0.329,0.531 -0.329,0.531 0.104,0.265 0.166,0.165 0.426,0.218 0.248,0.054 0.526,0.166 0.651,0.166 0.129,0 0.068,0.091 0.151,-0.413 0.072,-0.423 0.038,-0.561 0.007,-0.831 m 4.146,10.913 c -0.646,0.227 -1.438,0.57 -2.369,0.368 -0.009,-0.02 -0.027,-0.027 -0.027,-0.053 0.059,0.069 0.71,-0.004 0.526,-0.026 -0.511,-0.03 -1.082,-0.054 -1.476,-0.182 0.75,0.722 2.398,0.563 3.271,0.077 0.141,-0.071 0.163,-0.081 0.282,-0.152 0.09,-0.192 -0.023,-0.092 -0.207,-0.032 m 8.335,1.37 c -0.093,-0.087 -0.093,-0.097 -0.184,-0.189 -0.162,-0.171 -0.115,-0.171 -0.324,-0.333 -0.1,-0.101 -0.159,-0.137 -0.332,-0.286 -0.2,-0.185 -0.334,-0.255 -0.584,-0.455 -0.237,-0.195 -0.418,-0.364 -0.685,-0.582 -0.088,-0.066 -0.36,-0.239 -0.858,-0.492 -0.208,-0.128 -0.467,-0.259 -0.749,-0.195 0.24,0.229 0.469,0.535 0.816,0.819 0.495,0.402 1.3,0.527 1.266,1.239 -0.018,0.356 -0.145,0.673 -0.279,0.994 0.085,0.056 0.181,0.112 0.246,0.163 0.152,0.116 0.352,0.213 0.521,0.3 0.238,0.12 0.483,0.142 0.751,0.088 0.265,-0.054 0.417,-0.306 0.54,-0.535 0.055,-0.102 0.094,-0.204 0.068,-0.278 -0.118,-0.104 -0.151,-0.168 -0.213,-0.258"
             style="fill:#263d88;fill-opacity:1;fill-rule:nonzero;stroke:none"
             id="path124" />
        </g>
        <g
           id="g126"
           transform="translate(48.275,432.9198)">
          <path
             d="m 0,0 c -1.65,-2.294 -2.879,-4.709 -3.706,-7.11 0.769,1.873 1.803,3.734 3.133,5.495 0.463,0.613 0.946,1.193 1.446,1.745 C 0.557,0.078 0.251,0.031 0,0"
             style="fill:#5091cd;fill-opacity:1;fill-rule:nonzero;stroke:none"
             id="path128" />
        </g>
        <g
           id="g130"
           transform="translate(71.6473,441.1127)">
          <path
             d="m 0,0 c -5.963,4.499 -16.024,1.24 -22.672,-7.256 0.288,0.021 0.645,0.045 1.006,0.074 5.966,5.989 13.978,7.872 19.025,4.062 5.722,-4.317 5.464,-14.31 -0.575,-22.323 -3.108,-4.119 -7.142,-6.908 -11.105,-8.061 4.643,1.085 9.534,4.338 13.269,9.29 C 5.588,-15.411 6.058,-4.571 0,0"
             style="fill:#5091cd;fill-opacity:1;fill-rule:nonzero;stroke:none"
             id="path132" />
        </g>
        <g
           id="g134"
           transform="translate(62.7384,436.5786)">
          <path
             d="m 0,0 c 0.145,0.005 0.285,-0.006 0.434,-0.038 0.019,-0.005 0.042,-0.005 0.058,-0.007 0.055,-0.026 0.061,-0.102 0.144,-0.098 0.09,0.062 0.244,0.057 0.394,0.052 0.111,-0.056 0.155,-0.181 0.24,-0.262 0.056,0.218 0.372,0.277 0.553,0.159 0.121,-0.08 0.057,-0.215 0.183,-0.265 -0.028,0.183 0.087,0.222 0.197,0.261 C 2.304,-0.213 2.321,-0.243 2.367,-0.29 2.375,-0.298 2.42,-0.409 2.42,-0.409 2.469,-0.577 2.51,-0.75 2.57,-0.916 2.613,-1.035 2.629,-1.181 2.667,-1.25 L 2.666,-1.249 V -1.382 C 2.579,-1.427 2.467,-1.446 2.35,-1.462 2.383,-1.56 2.461,-1.613 2.481,-1.724 2.268,-1.89 1.979,-1.638 1.77,-1.724 1.777,-1.91 1.94,-1.941 1.981,-2.094 1.843,-2.346 1.553,-2.13 1.322,-2.121 1.216,-2.115 1.13,-2.192 1.03,-2.172 c -0.099,0.021 -0.185,0.2 -0.262,0.105 -0.024,-0.099 0.287,-0.152 0.237,-0.289 0.403,0.023 0.674,-0.337 1.054,-0.371 0.097,-0.006 0.218,0.044 0.316,0.027 0.296,-0.049 0.571,-0.55 0.601,-1.317 0,0.175 0.138,1.194 0.138,1.371 0.182,0.073 0.303,0.208 0.475,0.29 0.024,0.316 0.046,0.642 0.077,0.947 -0.295,0.051 -0.608,0.09 -0.903,0.145 -0.078,0.257 -0.208,0.954 -0.504,1.09 0.004,0.002 0.007,0.004 0.012,0.005 C 2.027,-0.033 1.63,-0.026 1.363,-0.011 1.176,-0.001 0.989,0 0.805,-0.004 0.721,-0.007 0.547,-0.046 0.468,-0.016 0.284,0.056 0.172,0.094 -0.024,0.069 -0.085,0.038 -0.104,0.015 -0.108,0.002 -0.148,-0.041 -0.2,-0.095 -0.129,-0.116 -0.116,-0.049 -0.057,-0.031 0,0 m -2.872,-0.616 c -0.044,0.28 0.155,0.313 0.313,0.392 0.056,0.003 0.111,0.006 0.172,0.011 0.135,-0.019 0.205,-0.18 0.281,-0.246 0.014,0.131 0.085,0.202 0.149,0.28 0.103,0.01 0.21,0.023 0.315,0.036 0.162,-0.026 0.149,-0.225 0.275,-0.289 -0.019,0.33 0.458,0.409 0.659,0.211 -0.002,0.095 -0.04,0.153 -0.054,0.238 L -3.051,-0.22 c -0.131,0.003 -0.246,-0.001 -0.295,-0.028 0.284,0.004 0.326,-0.236 0.474,-0.368 m -4.452,-11.74 c -0.004,-0.008 -0.006,-0.017 -0.011,-0.027 -0.078,-0.233 -0.156,-0.465 -0.236,-0.699 -0.022,-0.067 -0.034,-0.117 -0.047,-0.148 0.501,0.041 0.996,0.113 1.481,0.229 0.091,0.023 0.178,0.051 0.268,0.077 0.12,0.051 0.263,0.114 0.36,0.15 -0.007,0.076 -0.01,0.153 -0.013,0.18 -0.028,0.251 -0.073,0.502 -0.131,0.749 -0.033,-0.012 -0.069,-0.023 -0.102,-0.034 -0.279,-0.091 -0.56,-0.171 -0.845,-0.235 -0.227,-0.06 -0.455,-0.113 -0.673,-0.131 -0.019,-0.038 -0.034,-0.074 -0.051,-0.111 m 11.627,-8.511 c -0.024,0.101 -0.048,0.201 -0.054,0.318 -0.614,0.887 -1.145,1.816 -1.716,2.716 -0.189,0.301 -0.37,0.649 -0.579,0.922 -0.192,0.249 -0.493,0.466 -0.738,0.712 -0.74,0.742 -1.525,1.407 -2.295,2.083 0.581,1.138 1.119,2.37 1.741,3.453 0.21,0.362 0.488,0.747 0.633,1.109 0.113,0.279 0.158,0.633 0.239,0.949 0.243,0.973 0.447,1.877 0.709,2.848 0.154,0.12 0.298,0.248 0.29,0.527 C 2.314,-5.203 2.21,-5.062 2.059,-4.967 1.65,-5.159 0.841,-5.079 0.768,-4.704 0.67,-4.195 1.393,-4.153 1.453,-3.807 1.268,-3.812 0.932,-3.975 0.847,-3.834 c 0.172,0.128 0.391,0.208 0.553,0.344 -0.323,0.274 -0.788,0.404 -1.186,0.606 -0.053,0.414 -0.254,0.675 -0.238,1.16 0.05,0.134 0.126,0.205 0.165,0.388 0.025,0.072 0.025,0.107 -0.024,0.227 -0.126,0.004 -0.227,-0.021 -0.297,0.018 -0.14,0.133 0.002,0.402 -0.106,0.58 -0.058,-0.189 -0.075,-0.419 -0.184,-0.554 -0.009,0.142 -0.054,0.246 -0.107,0.343 0.028,-0.394 0.154,-0.692 0.239,-1.028 -0.294,0.047 -0.403,-0.088 -0.656,-0.08 0,-0.08 -0.029,-0.135 -0.085,-0.158 -0.594,-0.203 -1.313,-0.282 -1.846,-0.553 -0.239,0.249 -0.3,0.682 -0.523,0.949 0.099,-0.401 0.327,-0.713 0.446,-1.162 0.779,0.214 1.404,0.584 2.24,0.74 0.081,0.089 0.275,0.144 0.424,0.079 0.018,-0.144 0.125,-0.319 0.052,-0.474 -0.303,0.044 -0.122,0.005 -0.315,-0.055 -0.065,0.035 -0.078,-0.052 -0.193,-0.069 -0.132,-0.044 -0.2,-0.044 -0.325,-0.123 -0.13,-0.058 -0.106,-0.069 -0.236,-0.087 -0.115,-0.054 0.019,0 -0.115,-0.054 -0.126,-0.022 -0.139,-0.036 -0.262,-0.078 -0.191,-0.055 -0.122,-0.036 -0.284,-0.079 -0.247,-0.068 -0.098,-0.026 -0.356,-0.096 -0.377,-0.08 -0.039,0.01 -0.393,-0.098 -0.163,0.223 -0.324,0.448 -0.527,0.633 -0.082,-0.073 -0.109,0.129 -0.132,0.316 -0.219,0.073 -0.285,0.294 -0.292,0.581 -0.073,0.013 -0.183,-0.166 -0.315,-0.185 -0.204,0.082 -0.352,0.357 -0.632,0.394 -0.226,0.034 -0.582,-0.088 -0.868,-0.131 -0.221,-0.033 -0.438,-0.039 -0.615,-0.089 -1.386,-0.133 -6.159,-0.907 -7.034,-1.043 0.916,0.08 6.088,0.7 7.231,0.957 0.507,0.041 1.032,0.186 1.497,0.175 0.047,-0.065 0.091,-0.137 0.076,-0.263 -0.715,-0.241 -1.462,-0.312 -2.212,-0.424 -0.432,-0.062 -1.8,-0.343 -2.057,-0.393 -1.107,-0.221 -2.362,-0.452 -3.585,-0.66 -0.357,-0.061 -0.727,-0.119 -1.08,-0.185 -2.113,-0.384 -4.353,-0.548 -6.565,-0.289 -0.177,0.025 -0.246,-0.012 -0.281,-0.045 0.023,0.093 0.094,0.185 0.168,0.227 0.272,0.129 0.603,0.255 0.927,0.319 h 0.159 c 0.062,0.055 -0.1,0.023 -0.159,0.026 -0.272,0.008 -0.725,-0.006 -0.923,0 -0.052,-0.071 -0.147,-0.173 -0.167,-0.291 -0.007,-0.014 -0.067,-0.301 -0.068,-0.316 v -0.027 c 0.091,-0.436 0.154,-0.896 0.393,-1.186 0.769,-0.011 1.471,-0.227 2.19,-0.236 0.586,-0.008 1.171,0.08 1.742,0.105 0.47,0.022 0.942,0.014 1.423,0.052 0.836,0.068 1.693,0.285 2.531,0.422 2.583,0.422 5.128,0.887 7.541,1.398 0.233,0.244 0.406,0.6 0.922,0.422 0.19,-0.407 0.344,-0.851 0.502,-1.292 0.387,-0.118 0.674,-0.424 1.159,-0.238 -0.215,0.999 0.711,1.085 1.318,1.398 -0.033,-0.1 0.022,-0.136 0.028,-0.211 0.54,-0.01 0.47,-0.636 0.71,-0.949 -0.526,0.191 -1.059,-0.023 -1.396,-0.21 -0.128,-0.071 -0.393,-0.212 -0.421,-0.318 -0.059,-0.206 0.086,-0.64 0.129,-0.949 0.05,-0.334 0.152,-0.703 0.135,-0.975 -0.025,-0.327 -0.229,-0.677 -0.319,-0.949 -0.115,-0.356 -0.202,-0.654 -0.287,-1.002 -0.712,-0.645 -1.314,-1.395 -2.085,-1.978 -0.031,0.109 -0.046,0.237 -0.072,0.354 -0.086,-0.081 -0.189,-0.151 -0.303,-0.212 -0.006,-0.003 -0.012,-0.006 -0.018,-0.011 -0.023,-0.011 -0.045,-0.023 -0.069,-0.035 0.025,-0.059 0.043,-0.123 0.056,-0.187 0.056,-0.128 0.102,-0.256 0.137,-0.391 0.018,0.011 0.033,0.021 0.047,0.032 0.055,0.05 0.11,0.098 0.166,0.15 0.039,0.062 0.076,0.125 0.135,0.169 0.059,-0.153 -0.008,-0.238 -0.098,-0.317 -0.061,-0.072 -0.129,-0.14 -0.208,-0.203 0.085,-0.371 0.115,-0.756 0.106,-1.117 -1.013,-0.752 -2.434,-1.015 -3.67,-1.09 -0.363,-0.019 -0.717,0.286 -1.002,0.483 -0.242,0.168 -0.481,0.344 -0.717,0.525 -0.004,0.002 -0.007,0.007 -0.011,0.011 -0.314,0.226 -0.604,0.506 -0.666,0.918 -0.002,0.006 -0.002,0.009 -0.005,0.016 10e-4,-0.003 0.003,-0.003 0.003,0 -0.018,0.13 -0.015,0.272 0.017,0.431 0.022,-0.111 0.03,-0.232 0.04,-0.354 0.024,-0.06 0.057,-0.12 0.075,-0.196 0.1,-0.327 0.383,-0.498 0.639,-0.69 0.383,-0.29 0.769,-0.578 1.18,-0.826 0.157,-0.092 0.27,-0.16 0.443,-0.151 v 0.002 l 0.002,-0.002 c 0.111,0.325 0.223,0.666 0.337,0.994 -0.07,-0.006 -0.139,-0.019 -0.207,-0.022 -0.468,-0.026 -0.957,-0.228 -1.332,0.089 -0.115,0.056 -0.196,0.14 -0.226,0.26 0.176,-0.012 0.265,-0.113 0.364,-0.201 0.058,-0.019 0.115,-0.034 0.157,-0.044 0.041,-0.011 0.086,-0.014 0.129,-0.021 0.269,0 0.52,0.019 0.767,0.041 0.011,0.004 0.022,0.005 0.032,0.005 0.131,0.024 0.253,0.039 0.37,0.057 0.07,0.212 0.145,0.428 0.218,0.642 0.01,0.024 0.013,0.044 0.021,0.063 -0.168,-0.039 -0.334,-0.074 -0.498,-0.111 -0.493,-0.13 -0.986,-0.256 -1.483,-0.372 -0.1,-0.022 -0.188,-0.021 -0.273,-0.004 -0.004,-0.002 -0.012,-0.004 -0.014,-0.004 -0.003,0.002 -0.007,0.005 -0.007,0.005 -0.116,0.031 -0.215,0.098 -0.301,0.228 -0.009,0.017 -0.029,0.073 -0.049,0.144 -0.105,0.172 -0.16,0.381 -0.091,0.652 -0.019,-0.421 0.267,-0.822 0.544,-0.887 0.116,0 0.248,0.049 0.343,0.069 0.071,0.015 0.142,0.034 0.211,0.052 0.004,0 0.006,10e-4 0.008,10e-4 0,0 0.004,0.002 0.007,0.002 0.51,0.123 1.01,0.254 1.514,0.395 0.693,0.194 1.386,0.397 2.063,0.649 0.076,0.028 0.154,0.06 0.232,0.09 0.054,0.023 0.075,0.03 0.099,0.039 0.106,0.042 0.21,0.091 0.312,0.14 0.005,0.005 0.008,0.005 0.01,0.009 0.076,0.041 0.135,0.072 0.203,0.107 0.048,0.031 0.102,0.06 0.15,0.097 0.021,0.018 0.041,0.032 0.055,0.039 0.007,0.165 -0.002,0.129 -0.053,0.263 -0.093,-0.023 -0.236,-0.112 -0.329,-0.13 -0.298,-0.065 -0.221,-0.056 -0.468,-0.09 -0.065,0.265 -0.22,0.445 -0.287,0.709 0.36,0.214 0.828,0.316 0.842,0.871 -0.471,0.154 -0.717,0.36 -1.151,0.549 -0.076,0.099 -0.27,0.41 -0.373,0.615 -0.18,0.287 -0.125,0.158 -0.373,0.471 -0.192,0.246 -0.438,0.49 -0.642,0.592 -0.185,0.091 -0.486,0.188 -0.731,0.252 -0.244,0.065 -0.488,0.182 -0.736,0.186 -0.17,0.003 -0.389,-0.068 -0.581,-0.107 -0.549,-0.109 -0.711,-0.185 -1.057,-0.449 -0.15,-0.116 -0.354,-0.247 -0.446,-0.368 -0.04,-0.053 -0.151,-0.18 -0.186,-0.238 -0.075,-0.129 -0.146,-0.18 -0.21,-0.298 -0.115,-0.214 -0.111,-0.239 -0.185,-0.386 -0.179,-0.366 -0.345,-0.745 -0.415,-1.199 0.009,-1.282 0.748,-1.791 0.996,-2.835 0.017,0.141 -0.08,0.306 0,0.421 0.086,-0.132 0.055,-0.385 0.079,-0.581 0.197,-0.223 0.536,-0.307 0.635,-0.631 -0.249,0.045 -0.449,0.424 -0.644,0.436 0.311,-0.264 0.593,-0.556 0.933,-0.727 0.05,-0.025 0.127,0 0.185,-0.026 0.287,-0.132 0.503,-0.477 0.761,-0.555 0.121,-0.035 0.15,0.018 0.241,-0.111 -0.596,-0.102 -0.771,0.698 -1.13,0.533 -0.268,-0.121 -0.328,-0.082 -0.639,-0.132 -0.05,-0.247 0.266,-0.611 0.311,-0.845 0.206,-0.296 0.006,-0.441 0.185,-0.764 0.185,-0.166 0.297,-0.21 0.454,-0.314 0.09,-0.624 0.03,-1.288 0.237,-1.899 0.232,-0.455 0.767,-0.758 1.136,-1.159 0.401,-0.44 0.95,-0.908 1.262,-1.215 1.087,-1.055 2.128,-1.936 3.247,-2.951 0.282,-0.258 0.962,-0.74 1.104,-1.056 0.127,-0.272 0.175,-0.64 0.262,-0.975 0.092,-0.329 0.235,-0.686 0.266,-0.976 0.061,-0.522 -0.131,-1.02 0,-1.581 0.023,-0.089 0.078,-0.188 0.149,-0.289 2.156,1.392 4.194,3.202 5.956,5.391 0.128,0.162 0.252,0.323 0.376,0.488 -0.146,0.141 -0.313,0.254 -0.546,0.288 m -8.926,10.289 c -0.027,0.014 -0.06,0.016 -0.094,0.004 -0.01,-0.003 -0.018,-0.007 -0.026,-0.01 -0.011,-0.008 -0.02,-0.01 -0.027,-0.01 -0.205,-0.08 -0.412,-0.146 -0.587,-0.209 -0.1,-0.035 -0.206,-0.065 -0.306,-0.099 -0.02,-0.008 -0.036,-0.015 -0.056,-0.022 0.004,-0.06 0.01,-0.112 0.016,-0.165 0.05,-0.184 0.099,-0.364 0.148,-0.544 0.31,0.109 0.617,0.226 0.917,0.363 0.075,0.035 0.146,0.075 0.215,0.118 -0.023,0.086 -0.046,0.172 -0.071,0.257 -0.036,0.107 -0.078,0.213 -0.129,0.317 m -1.067,-1.101 c -0.044,0.215 -0.092,0.496 -0.202,0.684 -0.005,0.004 -0.007,0.011 -0.01,0.015 -0.213,-0.068 -0.428,-0.14 -0.642,-0.203 -0.137,-0.048 -0.279,-0.095 -0.425,-0.135 -0.077,-0.226 -0.157,-0.452 -0.231,-0.679 -0.008,-0.023 -0.011,-0.044 -0.015,-0.066 0.119,0.017 0.237,0.034 0.365,0.061 0.334,0.068 0.664,0.158 0.987,0.262 0.06,0.016 0.114,0.041 0.173,0.061 m 0.185,-0.153 c 0.067,-0.284 0.121,-0.575 0.152,-0.871 0.311,0.08 0.605,0.235 0.873,0.346 0.005,0.004 0.011,0.009 0.019,0.011 0.076,0.051 0.127,0.092 0.17,0.109 0.001,0.298 -0.03,0.594 -0.088,0.884 -0.025,0 -0.049,-0.005 -0.073,-0.01 -0.329,-0.197 -0.73,-0.333 -1.055,-0.438 0,-0.009 0.002,-0.019 0.002,-0.031"
             style="fill:#263d88;fill-opacity:1;fill-rule:nonzero;stroke:none"
             id="path136" />
        </g>
        <g
           id="g138"
           transform="translate(150.9073,435.4846)">
          <path
             d="m 0,0 c 0.299,-0.109 0.557,-0.263 0.771,-0.462 0.216,-0.199 0.383,-0.439 0.503,-0.72 0.121,-0.28 0.181,-0.595 0.181,-0.944 0,-0.343 -0.072,-0.657 -0.214,-0.94 C 1.098,-3.349 0.908,-3.59 0.671,-3.789 0.433,-3.988 0.158,-4.142 -0.155,-4.251 c -0.313,-0.109 -0.64,-0.163 -0.981,-0.163 -0.353,0 -0.68,0.054 -0.981,0.163 -0.303,0.109 -0.562,0.263 -0.781,0.462 -0.217,0.199 -0.388,0.438 -0.511,0.719 -0.122,0.281 -0.185,0.595 -0.185,0.944 0,0.349 0.073,0.664 0.219,0.944 0.145,0.281 0.337,0.521 0.578,0.72 0.241,0.199 0.519,0.353 0.834,0.462 0.317,0.109 0.645,0.163 0.986,0.163 C -0.625,0.163 -0.299,0.109 0,0 m -1.837,-0.315 c -0.243,-0.1 -0.455,-0.238 -0.637,-0.414 -0.182,-0.177 -0.324,-0.385 -0.428,-0.623 -0.103,-0.239 -0.155,-0.494 -0.155,-0.765 0,-0.288 0.049,-0.551 0.147,-0.789 0.098,-0.239 0.235,-0.446 0.411,-0.62 0.176,-0.173 0.387,-0.308 0.633,-0.402 0.246,-0.095 0.517,-0.143 0.814,-0.143 0.285,0 0.547,0.051 0.788,0.155 0.24,0.103 0.448,0.244 0.624,0.423 0.176,0.179 0.313,0.388 0.411,0.627 0.098,0.239 0.147,0.494 0.147,0.765 0,0.283 -0.049,0.541 -0.147,0.777 -0.098,0.237 -0.233,0.44 -0.407,0.611 -0.173,0.171 -0.38,0.305 -0.62,0.403 -0.241,0.098 -0.506,0.146 -0.796,0.146 -0.28,0 -0.542,-0.05 -0.785,-0.151 m -0.079,-2.876 c 0.027,0.196 0.043,0.396 0.046,0.6 0.003,0.204 0.004,0.404 0.004,0.599 0,0.196 -10e-4,0.395 -0.004,0.6 -0.003,0.204 -0.019,0.404 -0.046,0.6 h 0.897 c 0.118,0 0.23,-0.008 0.336,-0.022 0.106,-0.014 0.2,-0.043 0.28,-0.088 0.082,-0.044 0.147,-0.108 0.198,-0.193 0.05,-0.083 0.075,-0.195 0.075,-0.334 0,-0.23 -0.075,-0.409 -0.227,-0.537 -0.15,-0.129 -0.332,-0.199 -0.544,-0.21 0.1,-0.011 0.185,-0.042 0.256,-0.092 0.069,-0.05 0.135,-0.118 0.196,-0.201 0.09,-0.118 0.179,-0.235 0.268,-0.353 0.09,-0.117 0.176,-0.24 0.261,-0.369 h -0.63 c -0.072,0.123 -0.145,0.244 -0.217,0.361 -0.073,0.117 -0.157,0.229 -0.252,0.336 -0.045,0.05 -0.088,0.097 -0.13,0.142 -0.042,0.044 -0.1,0.067 -0.171,0.067 h -0.102 c 0.006,-0.151 0.01,-0.302 0.013,-0.453 0.003,-0.151 0.015,-0.302 0.038,-0.453 z M -1.422,-2 c 0.023,0 0.045,-0.002 0.068,-0.004 0.022,-0.002 0.044,-0.004 0.067,-0.004 0.179,0 0.331,0.038 0.457,0.113 0.126,0.075 0.188,0.214 0.188,0.415 0,0.1 -0.016,0.177 -0.05,0.231 -0.034,0.053 -0.078,0.092 -0.134,0.117 -0.056,0.025 -0.12,0.039 -0.193,0.042 -0.073,0.003 -0.148,0.004 -0.226,0.004 h -0.177 z"
             style="fill:#5091cd;fill-opacity:1;fill-rule:nonzero;stroke:none"
             id="path140" />
        </g>
      </g>
    </g>
  </g>
</svg>
